<svg width="100" height="100" viewBox="0 0 100 100" fill="none" xmlns="http://www.w3.org/2000/svg">
<g clip-path="url(#clip0)">
<path d="M41.4243 62.8867C41.4132 63.1061 41.4579 63.3248 41.5541 63.5226C41.6504 63.7204 41.7952 63.891 41.9752 64.0187C42.3417 64.2808 42.8665 64.4118 43.5494 64.4118C44.2079 64.4222 44.8489 64.2017 45.3597 63.789C45.6127 63.5921 45.8153 63.3387 45.9511 63.0494C46.0868 62.7601 46.1518 62.4431 46.1408 62.1241V61.4634H43.7319C42.1935 61.4634 41.4243 61.9378 41.4243 62.8867Z" fill="black"/>
<path d="M78.4092 15L9.80833 20.7098L3 50.746L19.7579 85.0012L93.3389 81.7745L96.9976 51.7383L78.4092 15ZM58.367 32.4811L61.7205 40.9925L65.074 32.4775H69.1704L62.7711 48.5956C62.4305 49.4844 61.8173 50.2445 61.0181 50.7685C60.2324 51.2836 59.3096 51.5537 58.3682 51.5441C57.0206 51.5441 55.7485 51.0018 54.552 49.9171L56.292 47.0966C56.9407 47.7226 57.6066 48.036 58.2895 48.0367C58.6473 48.0367 58.9545 47.8631 59.2113 47.5157C59.4566 47.1981 59.5913 46.81 59.5953 46.4098C59.5953 46.0198 57.8204 41.3769 54.2706 32.4811H58.367ZM34.6696 67.8943C34.6696 69.3847 34.2133 70.5625 33.3006 71.4277C32.3879 72.2929 31.27 72.7259 29.9471 72.7267C28.6249 72.7267 27.3664 72.1847 26.1715 71.1009L27.9376 68.2791C28.4488 68.872 29.0205 69.1684 29.6525 69.1684C29.8143 69.1714 29.9746 69.1374 30.121 69.0691C30.2674 69.0007 30.396 68.8998 30.4969 68.7741C30.7187 68.5128 30.8296 68.1181 30.8296 67.59V53.6352H34.6696V67.8943ZM34.3405 51.5666C33.9697 51.942 33.4791 52.1779 32.9526 52.2339C32.426 52.29 31.8962 52.1627 31.4537 51.8738C31.0112 51.5849 30.6835 51.1524 30.5267 50.6501C30.3698 50.1479 30.3935 49.6072 30.5937 49.1204C30.7939 48.6336 31.1582 48.231 31.6242 47.9813C32.0903 47.7317 32.6293 47.6505 33.1489 47.7518C33.6686 47.853 34.1367 48.1303 34.4733 48.5363C34.8098 48.9422 34.9939 49.4517 34.994 49.9775C35.0003 50.2727 34.9456 50.566 34.8332 50.8393C34.7208 51.1126 34.5531 51.3602 34.3405 51.5666V51.5666ZM50.0036 67.3354H46.3937V65.6777C45.4039 66.9147 44.1795 67.5332 42.7206 67.5332C41.2617 67.5332 40.0374 67.114 39.0475 66.2756C38.0577 65.4373 37.5628 64.3191 37.5628 62.921C37.5628 61.523 38.0748 60.4762 39.0988 59.7808C40.122 59.0869 41.5213 58.7395 43.2966 58.7388H46.1588V58.663C46.1588 57.2049 45.3824 56.4763 43.8297 56.4771C43.1081 56.4874 42.3937 56.6208 41.7177 56.8714C41.0432 57.0988 40.4084 57.4287 39.8358 57.8495L38.1209 55.3842C39.9304 54.0793 41.9975 53.4268 44.3222 53.4268C45.9918 53.4268 47.3569 53.8421 48.4175 54.6725C49.4781 55.503 50.0072 56.8161 50.0048 58.6121L50.0036 67.3354ZM52.508 46.1552H48.6405V38.6834C48.6405 36.582 47.8637 35.5313 46.3102 35.5313C45.9383 35.5285 45.5697 35.6004 45.2266 35.7429C44.8835 35.8854 44.573 36.0954 44.3139 36.3602C43.751 36.9128 43.4695 37.7219 43.4695 38.7876V46.1552H39.6033V38.6834C39.6033 37.5988 39.4371 36.8023 39.1048 36.2939C38.7724 35.7855 38.2338 35.5313 37.4889 35.5313C37.1212 35.532 36.7574 35.6057 36.4189 35.748C36.0803 35.8904 35.7739 36.0985 35.5176 36.3602C34.9459 36.9128 34.6601 37.7219 34.6601 38.7876V46.1552H30.8224V32.4811H34.6625V34.0311C35.7215 32.8469 36.9331 32.2549 38.2974 32.2549C39.1491 32.2484 39.98 32.5159 40.6658 33.0175C41.3469 33.4937 41.897 34.1316 42.2663 34.873C42.7893 34.0477 43.5289 33.3796 44.4057 32.9405C45.2374 32.4995 46.164 32.2643 47.1069 32.2549C48.7279 32.2549 50.0334 32.7333 51.0232 33.69C52.013 34.6468 52.508 36.0322 52.508 37.8463V46.1552ZM76.1803 70.9031C75.159 70.9224 74.1599 70.6061 73.3384 70.0032C71.5591 68.677 71.3504 66.4438 71.3325 66.1927V66.0566V61.9512V59.8625C71.3325 57.7619 70.5562 56.7112 69.0035 56.7104C68.6314 56.7074 68.2626 56.7793 67.9192 56.9218C67.5759 57.0643 67.2652 57.2743 67.0059 57.5392C66.443 58.0918 66.1616 58.901 66.1616 59.9667V67.3378H62.2941V59.8625C62.2941 58.7778 62.1276 57.9813 61.7944 57.4729C61.4613 56.9646 60.9239 56.7104 60.1821 56.7104C59.8144 56.7107 59.4505 56.7842 59.1119 56.9265C58.7733 57.0689 58.4669 57.2772 58.2108 57.5392C57.6384 58.0918 57.3525 58.901 57.3533 59.9667V67.3378H53.5133V53.6625H57.3533V55.2136C58.4115 54.0295 59.6232 53.4375 60.9883 53.4375C61.8399 53.4316 62.6706 53.6991 63.3567 54.2C64.0371 54.6766 64.5869 55.3144 64.9559 56.0556C65.4788 55.2309 66.218 54.5632 67.0942 54.1243C67.9252 53.6825 68.8515 53.4468 69.7941 53.4375C71.416 53.4375 72.7215 53.9163 73.7105 54.8738C74.6995 55.8314 75.1944 57.2164 75.1952 59.0289V61.9512V65.9512C75.2298 66.188 75.3825 66.7232 75.6663 66.9293C75.9299 67.1199 76.4415 67.0477 76.7241 66.9885L77.535 70.7445C77.0893 70.8425 76.6344 70.8937 76.1779 70.8972L76.1803 70.9031Z" fill="black"/>
</g>
<defs>
<clipPath id="clip0">
<rect width="94" height="70" fill="white" transform="translate(3 15)"/>
</clipPath>
</defs>
</svg>
